<svg xmlns="http://www.w3.org/2000/svg" width="7" height="7" viewBox="0 0 7 7" fill="none">
<path d="M3.77314 5.44463L6.88817 2.32954C6.96028 2.25749 7 2.16131 7 2.05876C7 1.95621 6.96028 1.86003 6.88817 1.78798L6.65882 1.55858C6.50938 1.4093 6.26649 1.4093 6.11727 1.55858L3.50145 4.17439L0.882733 1.55568C0.810628 1.48363 0.714507 1.44385 0.612011 1.44385C0.509402 1.44385 0.413281 1.48363 0.341119 1.55568L0.111828 1.78508C0.0397234 1.85719 0 1.95331 0 2.05586C0 2.15841 0.0397234 2.25459 0.111828 2.32664L3.22971 5.44463C3.30204 5.51685 3.39861 5.55651 3.50128 5.55629C3.60434 5.55651 3.70086 5.51685 3.77314 5.44463Z" fill="#454545"/>
</svg>