<svg xmlns="http://www.w3.org/2000/svg" width="30" height="30"><g fill-rule="evenodd" clip-path="url(#a)" clip-rule="evenodd"><path d="M16.89 7.97a.48.48 0 0 1-.346-.15c-.077-.08-.125-.176-.213-.35a9 9 0 0 0-1.036-1.633 5 5 0 0 0-.415-.487 4 4 0 0 0-.393-.33 2.2 2.2 0 0 1-.517.448c-.575.358-1.139.344-1.593.334l-.032-.001c-.013 0-1.399-.032-2.877.07-1.047.073-1.354.2-1.578.324-.204.113-.583.322-.758.71-.075.168-.097.332-.116.463a2 2 0 0 1-.036.2.51.51 0 0 1-.451.397c-.102.009-.358-.006-.532-.324a2 2 0 0 1-.125-.31 4.3 4.3 0 0 1-.158-.78 4.5 4.5 0 0 1 .32-2.208A5 5 0 0 1 7.146 2.76c1.176-1.136 2.58-1.428 3.51-1.621.776-.16 1.318-.184 2-.2.532-.012 1.16.01 1.794.274.325.134.562.294.747.503.142.161.199.287.264.432.034.075.073.16.134.279.154.293.248.47.402.63.07.073.097.089.196.147.105.062.25.147.49.327.296.222.492.369.703.623.135.163.416.503.528 1.007.071.322.038.575-.017.995-.036.271-.22.769-.276.914-.237.623-.357.803-.583.876a.5.5 0 0 1-.148.025m-2.514-4.013c.225 0 .42.136.543.222l.013.01c.295.204.504.396.602.493.107.104.232.242.496.576.37.47.632.874.82 1.2.062-.18.11-.343.12-.424.051-.387.066-.517.032-.671-.063-.284-.227-.481-.335-.612-.14-.17-.275-.27-.543-.472a4 4 0 0 0-.404-.27 1.6 1.6 0 0 1-.394-.303c-.247-.256-.383-.516-.556-.844-.076-.144-.124-.251-.16-.33a.6.6 0 0 0-.112-.197c-.06-.068-.159-.157-.403-.259-.474-.195-.96-.212-1.416-.203-.652.015-1.132.036-1.831.18-.874.182-2.07.43-3.05 1.379a4 4 0 0 0-.9 1.272c-.106.251-.26.711-.273 1.287q.117-.133.261-.252c.214-.176.425-.293.551-.363.396-.22.845-.36 1.966-.439a35 35 0 0 1 2.965-.072h.033c.379.01.738.019 1.073-.19q.265-.166.446-.465a.52.52 0 0 1 .456-.253"/><path d="M11.828 15.758a5 5 0 0 1-1.056-.115 5.2 5.2 0 0 1-2.111-1.047 5.4 5.4 0 0 1-1.629-2.321 6 6 0 0 1-.242-.934 2.5 2.5 0 0 1-.825-.61 2.64 2.64 0 0 1-.612-1.188c-.197-.89.106-1.764.83-2.396a.468.468 0 1 1 .615.705c-.628.548-.603 1.169-.532 1.49.127.573.558 1.058 1.073 1.208a.47.47 0 0 1 .333.386c.036.263.12.688.24 1.024a4.5 4.5 0 0 0 1.341 1.914c.72.59 1.443.796 1.72.858.79.174 1.44.06 1.683.002.665-.157 1.112-.466 1.304-.597a4.6 4.6 0 0 0 .865-.798c.53-.628.921-1.481 1.132-2.47a.47.47 0 0 1 .38-.363c.207-.035.432-.213.617-.487.201-.3.332-.677.358-1.033.027-.382-.049-.872-.572-1.04a.468.468 0 0 1 .287-.891c.443.143.788.426.997.82.176.333.253.74.221 1.177a3.16 3.16 0 0 1-.515 1.488c-.256.38-.575.655-.92.797-.256 1.035-.682 1.91-1.269 2.606-.424.501-.84.819-1.05.963-.214.147-.784.54-1.618.737a4.7 4.7 0 0 1-1.045.115"/><path d="M9.03 17.55a.468.468 0 0 1-.418-.675c.144-.29.387-.871.404-1.51.007-.252-.026-.366-.08-.557l-.047-.174a.468.468 0 0 1 .906-.232l.041.151c.062.218.126.443.116.836-.021.818-.323 1.543-.501 1.9a.47.47 0 0 1-.42.261m5.669.308a.47.47 0 0 1-.401-.227c-.309-.513-.682-1.319-.706-2.241a2.4 2.4 0 0 1 .115-.836l.042-.151a.468.468 0 0 1 .906.232q-.025.096-.048.174c-.054.19-.087.305-.08.556.02.72.322 1.368.572 1.784a.467.467 0 0 1-.4.709"/><path d="M23.531 29.268H.6a.47.47 0 0 1-.467-.467c-.005-1.63.07-5.706.882-8.327a6.8 6.8 0 0 1 .823-1.786 7 7 0 0 1 2.62-2.3 7.16 7.16 0 0 1 3.537-.764c.112.005.22.05.3.126l3.673 3.449 3.876-3.456a.47.47 0 0 1 .292-.119 7.2 7.2 0 0 1 3.537.765 7 7 0 0 1 2.62 2.3c.346.523.608 1.09.823 1.786.373 1.202.633 2.848.773 4.887.075 1.102.114 2.29.11 3.44a.465.465 0 0 1-.467.465m-11.494-.936h11.026a48 48 0 0 0-.107-2.905c-.135-1.969-.382-3.542-.734-4.675-.191-.617-.41-1.094-.71-1.547a6.05 6.05 0 0 0-2.264-1.983 6.2 6.2 0 0 0-2.909-.669l-4.068 3.628a.47.47 0 0 1-.632-.008l-3.855-3.62c-.742-.01-1.8.107-2.902.668a6.05 6.05 0 0 0-2.265 1.983c-.3.453-.518.93-.71 1.546-.351 1.134-.598 2.706-.733 4.675-.064.93-.1 1.926-.107 2.905z"/><path d="M5.038 29.267a.47.47 0 0 1-.468-.467v-5.395a.468.468 0 0 1 .936 0V28.8c0 .258-.21.467-.468.467m14.432 0a.47.47 0 0 1-.468-.467v-5.395a.468.468 0 0 1 .935 0V28.8c0 .258-.21.467-.468.467m1.882-13.497a.47.47 0 0 1-.468-.468V2.037a.468.468 0 0 1 .936 0v13.265c0 .258-.21.468-.468.468"/><path d="M28.664 9.295H21.35a.47.47 0 0 1-.468-.467v-5.64a.468.468 0 0 1 .754-.37l7.313 5.64a.467.467 0 0 1-.286.837m-6.845-.935h5.472l-5.47-4.22zm-7.439 19.215H9.513a.47.47 0 0 1-.468-.467v-5.726c0-.259.21-.468.468-.468h4.866c.258 0 .468.21.468.468v5.726a.467.467 0 0 1-.468.467m-4.397-.935h3.93v-4.79h-3.93z"/><path d="M12.798 23.33h-1.703a.468.468 0 0 1 0-.935h1.703a.468.468 0 0 1 0 .936m0 1.382h-1.703a.468.468 0 0 1 0-.936h1.703a.468.468 0 0 1 0 .936m0 1.382h-1.703a.468.468 0 0 1 0-.936h1.703a.468.468 0 0 1 0 .936M9.514 21.85a.47.47 0 0 1-.402-.228L6.01 16.448a.467.467 0 1 1 .802-.48l3.102 5.173a.467.467 0 0 1-.4.708m4.865.001a.468.468 0 0 1-.401-.708l3.102-5.174a.468.468 0 0 1 .802.48l-3.102 5.174a.47.47 0 0 1-.401.227"/></g><defs><clipPath id="a"><path fill="#fff" d="M.131.602h29v29h-29z"/></clipPath></defs></svg>