<svg xmlns="http://www.w3.org/2000/svg" width="32" height="32" fill="none"><g clip-path="url(#a)"><path fill="#000" d="M29.053 3.481h-2.578v4.247h-1.858a5 5 0 0 0-1.176-1.249l-.547.728q.232.175.44.382a4.07 4.07 0 0 1 1.2 2.895 4.07 4.07 0 0 1-.722 2.322 3.47 3.47 0 0 0-1.584-2.102 1.95 1.95 0 0 0 .182-.826V9.27a1.974 1.974 0 0 0-1.971-1.972 1.974 1.974 0 0 0-1.972 1.972v.607c0 .295.066.575.182.826a3.47 3.47 0 0 0-1.584 2.102 4.07 4.07 0 0 1-.721-2.322c0-1.094.426-2.122 1.2-2.895a4.07 4.07 0 0 1 2.895-1.2 4.1 4.1 0 0 1 1.756.395l.39-.822a5 5 0 0 0-2.146-.483 4.98 4.98 0 0 0-3.54 1.466 5 5 0 0 0-.64.783H5.789V3.481H3.21A2.58 2.58 0 0 0 .63 6.06v11.769h.91V6.059c0-.92.749-1.667 1.669-1.667h1.668V23.5H3.21c-.636 0-1.219.231-1.669.614v-5.376h-.91v7.34a2.58 2.58 0 0 0 2.579 2.579h3.094v-.91H3.21a1.67 1.67 0 0 1-1.669-1.669c0-.92.749-1.668 1.669-1.668h2.578V8.638h9.997a5 5 0 0 0-.351 1.846c0 1.337.52 2.594 1.466 3.54l3.539 3.538 3.539-3.539a4.97 4.97 0 0 0 1.465-3.539 5 5 0 0 0-.351-1.846h1.383v3.792h.91V4.392h1.668c.92 0 1.668.748 1.668 1.668v18.055a2.57 2.57 0 0 0-1.668-.614h-1.668V13.339h-.91v11.072h2.578c.92 0 1.668.748 1.668 1.668a1.67 1.67 0 0 1-1.668 1.668H7.213v.91h21.84a2.58 2.58 0 0 0 2.578-2.578V6.06a2.58 2.58 0 0 0-2.578-2.578m-9.676 5.79a1.063 1.063 0 0 1 2.123 0v.607a1.063 1.063 0 0 1-2.123 0zm1.062 7.005-2.579-2.579a2.57 2.57 0 0 1 1.36-2.27 1.96 1.96 0 0 0 2.437 0 2.57 2.57 0 0 1 1.36 2.27z"/><path d="M11.642 21.681h9.646c.953 0 1.729.776 1.729 1.73 0 .952-.776 1.728-1.729 1.728H11.4v.91h9.888a2.64 2.64 0 0 0 2.639-2.639 2.64 2.64 0 0 0-2.639-2.639h-9.646a1.488 1.488 0 0 1 0-2.973h6.613v-.91h-6.613a2.4 2.4 0 0 0-2.396 2.397 2.4 2.4 0 0 0 2.396 2.396M28.84 9.214h.91v.91h-.91zm0-3.336h.91v2.426h-.91zM7.76 25.139h.91v.91h-.91zm1.82 0h.91v.91h-.91zM8.973 9.548H6.698v2.275h.91v-1.365h1.365zm-2.275 3.185h.91v.91h-.91zm3.185-3.185h.91v.91h-.91z"/></g><defs><clipPath id="a"><path fill="#fff" d="M.631.575h31v31h-31z"/></clipPath></defs></svg>