<svg xmlns="http://www.w3.org/2000/svg" xml:space="preserve" viewBox="0 0 141.74 141.74"><circle cx="70.87" cy="70.87" r="70.87" fill="#3F8CFE"/><path fill="#FFF" d="M67.866 102.772v-.953l-1.009-.281-.422-.119c-1.36-.388-2.762-.789-4.254-1.304a.653.653 0 0 0-.873.612v1.536a.65.65 0 0 1-.495.628 15.14 15.14 0 0 0-10.232 8.944.657.657 0 0 0 .601.914h26.811c.47 0 .779-.479.602-.914a15.15 15.15 0 0 0-10.729-9.063M35.578 47.606c4.041 10.33 13.436 17.973 24.773 19.516.545.074.957.528.957 1.079v22.035c0 .295.11.586.329.783.605.545 1.404 1.038 2.355 1.435.775.303 1.601.586 2.443.855.706.227 1.43-.3 1.43-1.041V68.201c0-.551.412-1.005.957-1.079 11.338-1.543 20.732-9.186 24.773-19.516a1.1 1.1 0 0 0-1.018-1.503H36.596c-.775.001-1.3.783-1.018 1.503"/><path fill="#FFF" d="M105.678 43.924c-.56-2.349-1.569-4.576-2.948-6.462a18.5 18.5 0 0 0-2.279-2.578c-.399-.384-.854-.76-1.311-1.127l-.597-.446-.147-.108-.121-.088-.084-.056-.336-.224a22.5 22.5 0 0 0-5.567-2.683 23.7 23.7 0 0 0-10.703-.922 22 22 0 0 0-7.938 2.76 20.2 20.2 0 0 0-4.32 3.409l-.607.654-.348.415-.283.337c-.641.777-.766 1.895-.227 2.745.934 1.474 2.891 1.497 3.883.276l.278-.342.34-.417.401-.439a15.6 15.6 0 0 1 3.265-2.655 17.4 17.4 0 0 1 6.239-2.271 19.26 19.26 0 0 1 8.698.616c3.064.952 6.252 2.772 8.403 5.621 2.179 2.839 3.186 6.773 2.825 10.867-.168 2.045-.647 4.124-1.397 6.14a26 26 0 0 1-.612 1.499c-.112.237-.227.514-.336.721l-.394.779a27 27 0 0 1-1.695 2.784c-2.497 3.639-6.041 6.565-10.074 8.756-2.014 1.104-4.138 2.051-6.313 2.887a86 86 0 0 1-3.295 1.185l-1.641.539c-.574.18-1.132.345-1.652.481-1.438.39-2.939.713-4.458 1.058v3.423c1.719-.371 3.499-.716 5.333-1.176a41 41 0 0 0 1.762-.484l1.748-.552a89 89 0 0 0 3.444-1.199c2.292-.854 4.571-1.837 6.776-3.016 4.408-2.329 8.513-5.614 11.416-9.757a31 31 0 0 0 1.999-3.216l.404-.781c.163-.309.276-.569.417-.855q.397-.845.735-1.71c.904-2.305 1.512-4.71 1.758-7.143.245-2.429.122-4.894-.441-7.245m-24.522 63.029c.846 1.681 1.119 3.223 1.283 4.257.027.158.048.767.065 1.54h2.467c-.018-.924-.041-1.687-.071-1.888-.172-1.172-.442-2.948-1.451-5.047a12.6 12.6 0 0 0-2.188-3.172c-.961-1.033-2.185-1.948-3.556-2.716-2.756-1.543-6.048-2.477-9.474-3.494-1.705-.512-3.505-1.052-5.186-1.711-1.606-.669-3.157-1.676-4.115-3.026-.976-1.348-1.151-2.919-.361-4.39.082-.154.179-.308.279-.46V82.33q-.334.263-.647.541c-.954.848-1.78 1.83-2.394 3.021-.6 1.185-.922 2.599-.761 3.965.149 1.364.71 2.609 1.446 3.6 1.493 2.001 3.502 3.173 5.458 3.968 1.942.727 3.747 1.228 5.493 1.727 3.475.966 6.588 1.827 8.969 3.121 2.405 1.26 3.913 2.998 4.744 4.68M58.85 82.33v4.517z"/></svg>