<svg xmlns="http://www.w3.org/2000/svg" xmlns:xlink="http://www.w3.org/1999/xlink" x="0px"
     y="0px" viewBox="0 0 141.74 141.74" xml:space="preserve">
    <circle cx="70.87" cy="70.87" r="70.87" fill="#3F8CFE"></circle>
    <path d="M67.866,102.772v-0.953c-0.332-0.093-0.666-0.186-1.009-0.281l-0.422-0.119 c-1.36-0.388-2.762-0.789-4.254-1.304c-0.426-0.148-0.873,0.161-0.873,0.612v1.536c0,0.3-0.206,0.553-0.495,0.628 c-4.657,1.198-8.448,4.554-10.232,8.944c-0.178,0.436,0.131,0.914,0.601,0.914h26.811c0.47,0,0.779-0.479,0.602-0.914 C76.746,107.291,72.749,103.854,67.866,102.772z" fill="#FFFFFF"></path>
    <path d="M35.578,47.606c4.041,10.33,13.436,17.973,24.773,19.516c0.545,0.074,0.957,0.528,0.957,1.079 v5.565v4.159v9.75v1.897v0.664c0,0.295,0.11,0.586,0.329,0.783c0.605,0.545,1.404,1.038,2.355,1.435 c0.775,0.303,1.601,0.586,2.443,0.855c0.706,0.227,1.43-0.3,1.43-1.041v-8.083v-8.498v-7.486c0-0.551,0.412-1.005,0.957-1.079 c11.338-1.543,20.732-9.186,24.773-19.516c0.281-0.721-0.244-1.503-1.018-1.503H36.596 C35.821,46.104,35.296,46.886,35.578,47.606z" fill="#FFFFFF"></path>
    <path d="M105.678,43.924c-0.56-2.349-1.569-4.576-2.948-6.462c-0.688-0.944-1.458-1.806-2.279-2.578 c-0.399-0.384-0.854-0.76-1.311-1.127l-0.597-0.446l-0.147-0.108l-0.121-0.088l-0.084-0.056l-0.336-0.224 c-1.786-1.192-3.682-2.073-5.567-2.683c-3.779-1.234-7.503-1.383-10.703-0.922c-3.214,0.467-5.904,1.566-7.938,2.76 c-2.041,1.213-3.422,2.473-4.32,3.409c-0.229,0.247-0.433,0.466-0.607,0.654c-0.138,0.165-0.254,0.304-0.348,0.415 c-0.187,0.223-0.283,0.337-0.283,0.337l0,0c-0.641,0.777-0.766,1.895-0.227,2.745c0.934,1.474,2.891,1.497,3.883,0.276 c0,0,0.095-0.116,0.278-0.342c0.091-0.112,0.205-0.252,0.34-0.417c0.115-0.127,0.249-0.273,0.401-0.439 c0.642-0.692,1.705-1.696,3.265-2.655c1.563-0.947,3.662-1.854,6.239-2.271c2.564-0.411,5.607-0.343,8.698,0.616 c3.064,0.952,6.252,2.772,8.403,5.621c2.179,2.839,3.186,6.773,2.825,10.867c-0.168,2.045-0.647,4.124-1.397,6.14 c-0.187,0.504-0.392,1.004-0.612,1.499c-0.112,0.237-0.227,0.514-0.336,0.721l-0.394,0.779c-0.485,0.92-1.071,1.889-1.695,2.784 c-2.497,3.639-6.041,6.565-10.074,8.756c-2.014,1.104-4.138,2.051-6.313,2.887c-1.088,0.418-2.188,0.811-3.295,1.185 l-1.641,0.539c-0.574,0.18-1.132,0.345-1.652,0.481c-1.438,0.39-2.939,0.713-4.458,1.058v3.423l0,0 c1.719-0.371,3.499-0.716,5.333-1.176c0.623-0.155,1.202-0.318,1.762-0.484l1.748-0.552c1.149-0.375,2.298-0.772,3.444-1.199 c2.292-0.854,4.571-1.837,6.776-3.016c4.408-2.329,8.513-5.614,11.416-9.757c0.733-1.034,1.382-2.072,1.999-3.216l0.404-0.781 c0.163-0.309,0.276-0.569,0.417-0.855c0.264-0.563,0.51-1.133,0.735-1.71c0.904-2.305,1.512-4.71,1.758-7.143 C106.364,48.74,106.241,46.275,105.678,43.924z" fill="#FFFFFF"></path>
    <path d="M81.156,106.953c0.846,1.681,1.119,3.223,1.283,4.257c0.027,0.158,0.048,0.767,0.065,1.54h2.467 c-0.018-0.924-0.041-1.687-0.071-1.888c-0.172-1.172-0.442-2.948-1.451-5.047c-0.503-1.042-1.217-2.147-2.188-3.172 c-0.961-1.033-2.185-1.948-3.556-2.716c-2.756-1.543-6.048-2.477-9.474-3.494c-1.705-0.512-3.505-1.052-5.186-1.711 c-1.606-0.669-3.157-1.676-4.115-3.026c-0.976-1.348-1.151-2.919-0.361-4.39c0.082-0.154,0.179-0.308,0.279-0.46V82.33 c-0.222,0.176-0.439,0.355-0.647,0.541c-0.954,0.848-1.78,1.83-2.394,3.021c-0.6,1.185-0.922,2.599-0.761,3.965 c0.149,1.364,0.71,2.609,1.446,3.6c1.493,2.001,3.502,3.173,5.458,3.968c1.942,0.727,3.747,1.228,5.493,1.727 c3.475,0.966,6.588,1.827,8.969,3.121C78.817,103.533,80.325,105.271,81.156,106.953z" fill="#FFFFFF"></path>
    <path d="M58.85,82.33v4.517V82.33z" fill="#FFFFFF"></path>
</svg>