<svg xmlns="http://www.w3.org/2000/svg" width="27" height="26" viewBox="0 0 27 26">
  <g clip-path="url(#clip0_43_4344)">
    <path d="M21.3222 24.0638C21.2072 24.0638 21.0943 24.0204 21.0105 23.9387L15.9445 19.0324H3.03639C1.43442 19.0324 0.131348 17.7795 0.131348 16.2391V4.33823C0.131348 2.79788 1.43442 1.54492 3.03639 1.54492H23.2264C24.8283 1.54492 26.1314 2.79788 26.1314 4.33823V16.2392C26.1314 17.7795 24.8283 19.0325 23.2264 19.0325H21.7524L21.762 23.5946C21.7642 23.6101 21.7642 23.6256 21.7642 23.6411C21.7642 23.8737 21.5685 24.0629 21.3256 24.0629C21.3244 24.0638 21.3233 24.0638 21.3222 24.0638ZM3.03639 2.38853C1.91826 2.38853 1.00973 3.26311 1.00973 4.33823V16.2392C1.00973 17.3143 1.91929 18.1879 3.03639 18.1879H16.1272C16.2444 18.1879 16.3562 18.2323 16.439 18.313L20.8815 22.6155L20.8729 18.6106C20.8729 18.499 20.9191 18.3905 21.0009 18.3119C21.0836 18.2323 21.1955 18.1878 21.3116 18.1878H23.2264C24.3446 18.1878 25.2541 17.3133 25.2541 16.2391V4.33823C25.2541 3.26311 24.3446 2.38853 23.2264 2.38853H3.03639Z"/>
    <path d="M8.34528 11.9697C7.37446 11.9697 6.58423 11.2098 6.58423 10.2763C6.58423 9.34284 7.37446 8.58301 8.34528 8.58301C9.31611 8.58301 10.1063 9.34284 10.1063 10.2763C10.1063 11.2098 9.31726 11.9697 8.34528 11.9697ZM8.34528 9.42761C7.85824 9.42761 7.46261 9.80802 7.46261 10.2763C7.46261 10.7446 7.85824 11.1251 8.34528 11.1251C8.83233 11.1251 9.22795 10.7446 9.22795 10.2763C9.2291 9.80802 8.83233 9.42761 8.34528 9.42761Z"/>
    <path d="M13.1319 11.9697C12.1611 11.9697 11.3708 11.2098 11.3708 10.2763C11.3708 9.34284 12.1611 8.58301 13.1319 8.58301C14.1027 8.58301 14.893 9.34284 14.893 10.2763C14.8919 11.2099 14.1028 11.9697 13.1319 11.9697ZM13.1319 9.42761C12.6449 9.42761 12.2492 9.80802 12.2492 10.2763C12.2492 10.7446 12.6449 11.1251 13.1319 11.1251C13.6189 11.1251 14.0146 10.7446 14.0146 10.2763C14.0146 9.80802 13.6179 9.42761 13.1319 9.42761Z" />
    <path d="M17.9173 11.9697C16.9465 11.9697 16.1562 11.2098 16.1562 10.2763C16.1562 9.34284 16.9465 8.58301 17.9173 8.58301C18.8881 8.58301 19.6784 9.34284 19.6784 10.2763C19.6773 11.2099 18.8882 11.9697 17.9173 11.9697ZM17.9173 9.42761C17.4303 9.42761 17.0346 9.80802 17.0346 10.2763C17.0346 10.7446 17.4303 11.1251 17.9173 11.1251C18.4043 11.1251 18.8 10.7446 18.8 10.2763C18.8 9.80802 18.4033 9.42761 17.9173 9.42761Z" />
  </g>
  <defs>
    <clipPath id="clip0_43_4344">
      <rect width="26" height="25" fill="white" transform="translate(0.131348 0.304443)"/>
    </clipPath>
  </defs>
</svg>