<svg xmlns="http://www.w3.org/2000/svg" width="30" height="30" viewBox="0 0 30 30">
  <g clip-path="url(#clip0_43_4279)">
    <path fill-rule="evenodd" clip-rule="evenodd" d="M16.8897 7.97079C16.7606 7.97079 16.6364 7.91803 16.5438 7.82053C16.4667 7.7393 16.4188 7.64353 16.331 7.46968C16.1768 7.16276 15.8893 6.59023 15.2949 5.83745C15.0488 5.52565 14.9498 5.41925 14.8799 5.35027C14.8255 5.2967 14.6867 5.16677 14.4869 5.01976C14.3359 5.19762 14.1629 5.34783 13.9696 5.468C13.3955 5.82612 12.8311 5.81229 12.3772 5.80177L12.3455 5.80095C12.3317 5.80095 10.9464 5.76929 9.46764 5.87161C8.4209 5.9439 8.11397 6.07133 7.88985 6.19481C7.68601 6.30765 7.3068 6.51718 7.13219 6.90534C7.05665 7.07263 7.03474 7.23662 7.01609 7.36817C7.00633 7.44127 6.99738 7.50461 6.98035 7.56789C6.90644 7.83913 6.69854 7.95117 6.52886 7.96494C6.42653 7.97389 6.17074 7.95925 5.997 7.64094C5.95318 7.56057 5.91089 7.45581 5.87195 7.33076C5.80048 7.10339 5.74284 6.81913 5.71361 6.55038C5.60401 5.55559 5.86788 4.74033 6.03436 4.34323C6.14233 4.08581 6.4672 3.41671 7.14602 2.75975C8.32182 1.62369 9.72668 1.33217 10.6565 1.1389C11.432 0.978119 11.9744 0.954583 12.6566 0.939181C13.1877 0.926981 13.8153 0.949754 14.4503 1.21281C14.7752 1.34676 15.0123 1.50678 15.1974 1.71631C15.3387 1.87709 15.3955 2.003 15.4613 2.14833C15.4954 2.22306 15.5336 2.3083 15.5952 2.42685C15.7495 2.72 15.8429 2.89781 15.9972 3.05778C16.067 3.13006 16.0938 3.14551 16.1929 3.20392C16.2985 3.26645 16.443 3.35093 16.6834 3.53118C16.979 3.75286 17.1747 3.89987 17.3858 4.15403C17.5206 4.31726 17.8024 4.65666 17.9137 5.16097C17.9851 5.48254 17.9518 5.73589 17.8966 6.15577C17.8608 6.42701 17.6773 6.92476 17.6213 7.07014C17.3842 7.69299 17.264 7.87324 17.0383 7.94634C16.9904 7.96271 16.9393 7.97079 16.8897 7.97079ZM14.3757 3.9569C14.6006 3.9569 14.7955 4.09334 14.9189 4.17945L14.9319 4.1884C15.2267 4.393 15.4361 4.58545 15.5344 4.68213C15.6407 4.78608 15.7658 4.92414 16.0298 5.25791C16.4001 5.72725 16.6623 6.13248 16.8507 6.4573C16.9124 6.27781 16.9603 6.11546 16.9709 6.03422C17.0212 5.64688 17.0358 5.51695 17.0017 5.36268C16.9392 5.07923 16.7752 4.88195 16.6672 4.75121C16.5267 4.58148 16.3919 4.48083 16.124 4.27939C15.9259 4.13075 15.8121 4.06335 15.7204 4.00977C15.5986 3.9383 15.4841 3.87095 15.3257 3.7061C15.0788 3.45031 14.9425 3.19045 14.7695 2.86156C14.6939 2.71781 14.646 2.61066 14.6103 2.53268C14.5559 2.41251 14.5445 2.38816 14.4975 2.33458C14.4382 2.26718 14.3391 2.17782 14.0947 2.07635C13.6213 1.88065 13.1348 1.86357 12.6792 1.87338C12.0272 1.88797 11.5472 1.90912 10.848 2.05363C9.97429 2.23475 8.77815 2.48322 7.79723 3.43165C7.2272 3.98303 6.96409 4.54493 6.8975 4.70414C6.79192 4.95505 6.63845 5.41549 6.62463 5.99122C6.70342 5.90272 6.79029 5.81824 6.88611 5.7395C7.09966 5.5625 7.31082 5.44553 7.43749 5.37569C7.83292 5.1564 8.28202 5.01513 9.40349 4.93721C10.9277 4.83163 12.3106 4.8633 12.3683 4.86492L12.4008 4.86574C12.78 4.87468 13.1389 4.88358 13.4743 4.6741C13.6497 4.5645 13.7999 4.4086 13.9202 4.21041C13.9957 4.08536 14.1159 3.99925 14.2596 3.96839C14.2993 3.96011 14.3375 3.9569 14.3757 3.9569Z"/>
    <path fill-rule="evenodd" clip-rule="evenodd" d="M11.8283 15.7584C11.514 15.7584 11.1568 15.7283 10.7719 15.643C10.4292 15.5675 9.53678 15.3142 8.66053 14.5963C8.2407 14.252 7.47008 13.4927 7.03236 12.2747C6.91301 11.9425 6.83503 11.5853 6.79035 11.3408C6.48418 11.2036 6.20323 10.9965 5.96528 10.731C5.66161 10.3916 5.44964 9.9807 5.35301 9.54298C5.15649 8.65301 5.45859 7.7792 6.18208 7.14745C6.37698 6.97772 6.67257 6.99719 6.84225 7.19213C7.01198 7.38702 6.99251 7.68262 6.79756 7.85229C6.16983 8.40042 6.19505 9.02083 6.26647 9.34159C6.39314 9.91487 6.8243 10.4005 7.33919 10.5499C7.51705 10.6019 7.64774 10.7529 7.67209 10.9365C7.70782 11.1988 7.79144 11.6242 7.91247 11.9596C8.28767 13.0039 8.97543 13.6462 9.25313 13.8744C9.97343 14.464 10.6962 14.6703 10.973 14.7319C11.7624 14.9057 12.4128 14.7912 12.6564 14.7335C13.3207 14.5768 13.7681 14.2682 13.9598 14.1367C14.0978 14.0417 14.4584 13.7737 14.8254 13.3392C15.3556 12.7115 15.7463 11.858 15.9574 10.8698C15.9972 10.6822 16.1482 10.5376 16.3375 10.506C16.5437 10.471 16.7687 10.2932 16.9538 10.0188C17.1551 9.71912 17.2859 9.34235 17.3119 8.98586C17.3395 8.60421 17.2632 8.11373 16.7403 7.94562C16.4942 7.86683 16.3594 7.60296 16.4382 7.35688C16.517 7.11085 16.7809 6.97604 17.0269 7.05483C17.4703 7.19777 17.8154 7.48117 18.0241 7.87578C18.2004 8.20792 18.2767 8.61473 18.245 9.05245C18.2077 9.56647 18.0201 10.1089 17.7302 10.5401C17.4744 10.9202 17.1553 11.1946 16.8102 11.3367C16.5544 12.3721 16.1281 13.2475 15.541 13.9425C15.1171 14.4444 14.7013 14.7619 14.491 14.9064C14.2766 15.0534 13.7073 15.4456 12.8726 15.6429C12.6476 15.695 12.2831 15.7584 11.8283 15.7584Z"/>
    <path fill-rule="evenodd" clip-rule="evenodd" d="M9.0308 17.5504C8.96096 17.5504 8.8903 17.535 8.82295 17.5018C8.59151 17.3873 8.4965 17.1063 8.61179 16.8749C8.75554 16.585 8.99913 16.0036 9.01621 15.3644C9.02272 15.1135 8.99024 14.999 8.93661 14.8082C8.92202 14.757 8.90575 14.6986 8.88867 14.6344C8.82452 14.3843 8.97555 14.1293 9.22569 14.0652C9.47579 14.001 9.73082 14.152 9.79497 14.4022C9.80879 14.4541 9.82257 14.5045 9.8364 14.5532C9.89811 14.7709 9.96226 14.9958 9.95174 15.3888C9.93064 16.2074 9.62854 16.9317 9.45073 17.2898C9.36864 17.4554 9.20292 17.5504 9.0308 17.5504Z"/>
    <path fill-rule="evenodd" clip-rule="evenodd" d="M14.6997 17.8575C14.5405 17.8575 14.3863 17.7762 14.2985 17.6309C13.99 17.1177 13.6172 16.3122 13.5928 15.3896C13.5823 14.9958 13.6464 14.7709 13.7082 14.5541C13.722 14.5054 13.7358 14.4558 13.7496 14.403C13.8137 14.1529 14.0687 14.0019 14.3189 14.066C14.569 14.1302 14.72 14.3851 14.6559 14.6353C14.6397 14.6986 14.6226 14.7571 14.608 14.809C14.5544 14.9991 14.5211 15.1143 14.5283 15.3653C14.5471 16.0848 14.8499 16.7328 15.1 17.1494C15.2332 17.371 15.1617 17.6585 14.94 17.7909C14.8646 17.8356 14.7817 17.8575 14.6997 17.8575Z"/>
    <path fill-rule="evenodd" clip-rule="evenodd" d="M23.5314 29.2675H0.599266C0.34185 29.2675 0.132318 29.0588 0.131556 28.8014C0.126676 27.1708 0.2014 23.0952 1.01426 20.4739C1.2303 19.7788 1.49173 19.2112 1.83683 18.6882C2.12673 18.2497 2.96318 17.147 4.4573 16.3877C5.82642 15.691 7.13628 15.5878 7.99377 15.6236C8.10586 15.6285 8.21306 15.6731 8.29424 15.7503L11.9671 19.199L15.843 15.7429C15.9234 15.6706 16.0265 15.6292 16.1354 15.6243C16.9929 15.5886 18.3019 15.6925 19.6718 16.3885C21.166 17.1485 22.0024 18.2505 22.2923 18.689C22.6382 19.2119 22.8997 19.7788 23.1149 20.4747C23.4884 21.6773 23.7483 23.3225 23.8879 25.3623C23.9635 26.4635 24.0016 27.6523 23.9975 28.8014C23.9983 29.0596 23.7889 29.2675 23.5314 29.2675ZM12.0369 28.3321H23.0629C23.0564 27.3527 23.0198 26.3572 22.9557 25.4266C22.8209 23.4582 22.574 21.8852 22.2224 20.7516C22.0307 20.1353 21.8123 19.6578 21.5126 19.2046C21.2633 18.8278 20.5439 17.8802 19.2478 17.2217C18.1434 16.6597 17.0821 16.542 16.3391 16.5534L12.2708 20.1807C12.0897 20.3415 11.816 20.3382 11.639 20.1726L7.78419 16.5525C7.04198 16.5427 5.9839 16.6605 4.88191 17.2208C3.58588 17.8793 2.86645 18.827 2.61711 19.2038C2.31746 19.6569 2.09903 20.1335 1.90739 20.7499C1.55578 21.8835 1.30889 23.4565 1.17408 25.4249C1.10993 26.3555 1.07338 27.351 1.06687 28.3303L12.0369 28.3321Z" />
    <path fill-rule="evenodd" clip-rule="evenodd" d="M5.0379 29.2674C4.77967 29.2674 4.57019 29.0579 4.57019 28.7997V23.4053C4.57019 23.1471 4.77972 22.9376 5.0379 22.9376C5.29608 22.9376 5.50561 23.1471 5.50561 23.4053V28.7997C5.50571 29.058 5.29618 29.2674 5.0379 29.2674Z" />
    <path fill-rule="evenodd" clip-rule="evenodd" d="M19.4695 29.2674C19.2113 29.2674 19.0018 29.0579 19.0018 28.7997V23.4053C19.0018 23.1471 19.2113 22.9376 19.4695 22.9376C19.7278 22.9376 19.9373 23.1471 19.9373 23.4053V28.7997C19.9373 29.058 19.7278 29.2674 19.4695 29.2674Z" />
    <path fill-rule="evenodd" clip-rule="evenodd" d="M21.3511 15.7696C21.0929 15.7696 20.8834 15.5601 20.8834 15.3019V2.03717C20.8834 1.77894 21.0929 1.56946 21.3511 1.56946C21.6094 1.56946 21.8188 1.77899 21.8188 2.03717V15.3019C21.8189 15.5601 21.6094 15.7696 21.3511 15.7696Z" />
    <path fill-rule="evenodd" clip-rule="evenodd" d="M28.6636 9.29529H21.3511C21.0929 9.29529 20.8834 9.08581 20.8834 8.82758V3.18873C20.8834 3.0101 20.9849 2.84769 21.1449 2.7689C21.3049 2.69011 21.4957 2.70963 21.637 2.81846L28.9495 8.45726C29.1078 8.57906 29.1712 8.7894 29.1062 8.9786C29.042 9.16785 28.8634 9.29529 28.6636 9.29529ZM21.8189 8.35982H27.2912L21.8189 4.14047V8.35982Z" />
    <path fill-rule="evenodd" clip-rule="evenodd" d="M14.3789 27.5752H9.51312C9.25489 27.5752 9.04541 27.3657 9.04541 27.1075V21.3818C9.04541 21.1235 9.25489 20.9141 9.51312 20.9141H14.3789C14.6371 20.9141 14.8466 21.1235 14.8466 21.3818V27.1075C14.8466 27.3665 14.638 27.5752 14.3789 27.5752ZM9.98169 26.6397H13.912V21.8495H9.98169V26.6397Z" />
    <path fill-rule="evenodd" clip-rule="evenodd" d="M12.7978 23.3307H11.0949C10.8367 23.3307 10.6272 23.1212 10.6272 22.863C10.6272 22.6047 10.8367 22.3953 11.0949 22.3953H12.7978C13.056 22.3953 13.2655 22.6047 13.2655 22.863C13.2655 23.1212 13.056 23.3307 12.7978 23.3307Z"/>
    <path fill-rule="evenodd" clip-rule="evenodd" d="M12.7978 24.7128H11.0949C10.8367 24.7128 10.6272 24.5033 10.6272 24.2451C10.6272 23.9868 10.8367 23.7773 11.0949 23.7773H12.7978C13.056 23.7773 13.2655 23.9868 13.2655 24.2451C13.2655 24.5033 13.056 24.7128 12.7978 24.7128Z"/>
    <path fill-rule="evenodd" clip-rule="evenodd" d="M12.7978 26.0948H11.0949C10.8367 26.0948 10.6272 25.8854 10.6272 25.6271C10.6272 25.3689 10.8367 25.1594 11.0949 25.1594H12.7978C13.056 25.1594 13.2655 25.3689 13.2655 25.6271C13.2655 25.8854 13.056 26.0948 12.7978 26.0948Z"/>
    <path fill-rule="evenodd" clip-rule="evenodd" d="M9.51397 21.8494C9.35481 21.8494 9.19967 21.7682 9.11203 21.622L6.01003 16.4485C5.87685 16.2268 5.94913 15.9393 6.17081 15.8069C6.39249 15.6737 6.67995 15.746 6.81237 15.9677L9.91437 21.1412C10.0476 21.3629 9.97527 21.6504 9.75359 21.7828C9.67882 21.8283 9.59596 21.8494 9.51397 21.8494Z"/>
    <path fill-rule="evenodd" clip-rule="evenodd" d="M14.3789 21.8494C14.2969 21.8494 14.214 21.8283 14.1385 21.7829C13.9168 21.6497 13.8453 21.363 13.9777 21.1413L17.0797 15.9678C17.2129 15.7461 17.4995 15.6747 17.7212 15.807C17.9429 15.9402 18.0144 16.2269 17.882 16.4486L14.78 21.6221C14.6931 21.7682 14.538 21.8494 14.3789 21.8494Z"/>
  </g>
  <defs>
    <clipPath id="clip0_43_4279">
      <rect width="29" height="29" fill="white" transform="translate(0.131348 0.602051)"/>
    </clipPath>
  </defs>
</svg>