<svg xmlns="http://www.w3.org/2000/svg" width="32" height="32" viewBox="0 0 32 32" fill="none">
  <g clip-path="url(#clip0_43_4334)">
    <path d="M29.0531 3.48145H26.4747V7.728H24.6174C24.4329 7.44939 24.2193 7.1871 23.9776 6.94539C23.8097 6.77747 23.6292 6.62066 23.441 6.47923L22.8944 7.20673C23.0484 7.32262 23.1964 7.45105 23.3341 7.5887C24.1075 8.36233 24.5334 9.39044 24.5334 10.4843C24.5334 11.3258 24.2803 12.1281 23.8118 12.8059C23.5815 11.9282 23.0169 11.1733 22.2279 10.704C22.3447 10.4526 22.4102 10.1728 22.4102 9.87766V9.271C22.4102 8.18376 21.5257 7.29945 20.4387 7.29945C19.3514 7.29945 18.4669 8.18376 18.4669 9.271V9.87766C18.4669 10.1728 18.5326 10.4526 18.6492 10.704C17.8602 11.1733 17.2957 11.9282 17.0653 12.8059C16.5968 12.1281 16.3437 11.3258 16.3437 10.4843C16.3437 9.39044 16.7697 8.36233 17.5431 7.5887C18.3165 6.81554 19.3448 6.38935 20.4387 6.38935C21.0439 6.38935 21.6515 6.52582 22.1953 6.78409L22.5855 5.96198C21.9207 5.64623 21.1783 5.47949 20.4387 5.47949C19.1017 5.47949 17.8449 6.00005 16.8995 6.94539C16.6578 7.1871 16.4443 7.44939 16.2598 7.728H5.788V3.48145H3.20956C1.78789 3.48145 0.631348 4.63799 0.631348 6.05965V17.8287H1.54144V6.05965C1.54144 5.13986 2.28976 4.39154 3.20956 4.39154H4.87791V23.5009H3.20956C2.57381 23.5009 1.99129 23.7322 1.54144 24.1149V18.7388H0.631348V26.0794C0.631348 27.5011 1.78789 28.6576 3.20956 28.6576H6.3036V27.7475H3.20956C2.28976 27.7475 1.54144 26.9992 1.54144 26.0794C1.54144 25.1594 2.28976 24.411 3.20956 24.411H5.788V8.6381H15.7851C15.5552 9.21803 15.4336 9.84171 15.4336 10.4843C15.4336 11.8211 15.9542 13.0781 16.8995 14.0232L20.4387 17.5624L23.9776 14.0232C24.9229 13.0781 25.4435 11.8211 25.4435 10.4843C25.4435 9.84171 25.3219 9.21803 25.092 8.6381H26.4747V12.4296H27.3848V4.39154H29.0531C29.9729 4.39154 30.7213 5.13986 30.7213 6.05965V24.1149C30.2714 23.7322 29.6889 23.5009 29.0531 23.5009H27.3848V13.3395H26.4747V24.411H29.0531C29.9729 24.411 30.7213 25.1594 30.7213 26.0794C30.7213 26.9992 29.9729 27.7475 29.0531 27.7475H7.21346V28.6576H29.0531C30.4748 28.6576 31.6313 27.5011 31.6313 26.0794V6.05965C31.6313 4.63799 30.4748 3.48145 29.0531 3.48145ZM19.377 9.271C19.377 8.68564 19.8533 8.2093 20.4387 8.2093C21.0241 8.2093 21.5002 8.68564 21.5002 9.271V9.87766C21.5002 10.463 21.0241 10.9394 20.4387 10.9394C19.8533 10.9394 19.377 10.463 19.377 9.87766V9.271ZM20.4387 16.2755L17.8605 13.6971C17.8612 12.7349 18.3867 11.8717 19.2207 11.4263C19.5563 11.6908 19.9791 11.8492 20.4387 11.8492C20.898 11.8492 21.3209 11.6908 21.6565 11.4263C22.4904 11.8717 23.016 12.7349 23.0169 13.6971L20.4387 16.2755Z" fill="black"/>
    <path d="M11.6422 21.681H21.2881C22.2412 21.681 23.017 22.4567 23.017 23.4101C23.017 24.3633 22.2412 25.139 21.2881 25.139H11.3995V26.0489H21.2881C22.7431 26.0489 23.9268 24.8651 23.9268 23.4101C23.9268 21.9549 22.7431 20.7711 21.2881 20.7711H11.6422C10.8227 20.7711 10.1559 20.1044 10.1559 19.2849C10.1559 18.4651 10.8227 17.7984 11.6422 17.7984H18.2548V16.8885H11.6422C10.3208 16.8885 9.24585 17.9635 9.24585 19.2849C9.24585 20.606 10.3208 21.681 11.6422 21.681Z"/>
    <path d="M28.8407 9.21423H29.7506V10.1243H28.8407V9.21423Z"/>
    <path d="M28.8407 5.87781H29.7506V8.30441H28.8407V5.87781Z" />
    <path d="M7.75952 25.139H8.66938V26.0489H7.75952V25.139Z" />
    <path d="M9.57947 25.139H10.4893V26.0489H9.57947V25.139Z" />
    <path d="M8.97288 9.54797H6.69788V11.823H7.60797V10.4581H8.97288V9.54797Z" />
    <path d="M6.69788 12.7328H7.60797V13.6429H6.69788V12.7328Z" />
    <path d="M9.88269 9.54797H10.7928V10.4581H9.88269V9.54797Z" />
  </g>
  <defs>
    <clipPath id="clip0_43_4334">
      <rect width="31" height="31" fill="white" transform="translate(0.631348 0.575195)"/>
    </clipPath>
  </defs>
</svg>